<svg width="502" height="306" viewBox="0 0 502 306" fill="none" xmlns="http://www.w3.org/2000/svg">
<path d="M475.5 306H18C12.4 294 -5 266 2.99999 258C11 250 9.52413 238.178 11 225C12.3039 213.357 8.84693 206.516 11 195C13.4926 181.668 17.7174 174.746 24.5 163C30.3005 152.955 31.0889 142.937 42 139C42 139 52.9872 138.517 60 139C80.4168 140.408 90.1455 155.127 110.5 153C130.302 150.931 143.949 145.849 156 130C166.293 116.463 159.517 103.015 167.5 88C173.642 76.4473 178.178 70.1436 188 61.5C198.764 52.0279 205.692 44.4295 220 43.5C236.21 42.447 242.969 54.239 257.5 61.5C272.266 68.8781 278.53 79.9028 295 81C313.932 82.2612 328.788 77.1604 339.5 61.5C345.709 52.4231 342.733 44.4104 347.5 34.5C352.243 24.6397 354.928 18.3005 363.5 11.5C372.792 4.12792 380.706 -2.62341 392 0.999997C405.649 5.37882 401.061 21.4539 407 34.5C416.555 55.4892 432 88 432 88C432 88 454.984 106.324 457 123C459.019 139.703 448.771 148.078 441 163C430.39 183.374 395.621 191.045 407 211C411.113 218.213 414.87 223.313 423 225C435.78 227.651 436.741 208.48 449 204C462.021 199.241 473.015 196.234 484.5 204C492.576 209.461 494.593 215.865 498 225C503.595 240.002 501.828 250.453 498 266C493.715 283.403 475.5 306 475.5 306Z" fill="url(#paint0_linear_6_15)"/>
<defs>
<linearGradient id="paint0_linear_6_15" x1="251.248" y1="-0.00875854" x2="251.248" y2="306" gradientUnits="userSpaceOnUse">
<stop stop-color="#C8F4F8"/>
<stop offset="1" stop-color="#497179"/>
</linearGradient>
</defs>
</svg>
